<svg width="186" height="186" viewBox="0 0 186 186" fill="none" xmlns="http://www.w3.org/2000/svg">
<circle cx="93" cy="93" r="93" fill="#4F704F"/>
<path d="M66.05 145L65.204 139.501C70.186 138.655 73.194 137.715 74.228 136.681C75.356 135.647 75.92 133.673 75.92 130.759V61.528C75.92 58.614 75.356 56.64 74.228 55.606C73.194 54.572 70.186 53.632 65.204 52.786L66.05 47.287H100.595L101.159 52.786L92.417 54.478C90.537 54.854 89.597 56.076 89.597 58.144V137.809L102.146 137.668C112.58 137.48 118.69 137.151 120.476 136.681C121.98 136.211 124.612 128.973 128.372 114.967L136.127 115.672C136.221 117.27 136.268 120.56 136.268 125.542C136.268 130.43 135.751 136.916 134.717 145H66.05Z" fill="white"/>
<circle cx="131.5" cy="103.5" r="10.5" fill="#FF5C5C"/>
</svg>
