<svg width="170" height="170" viewBox="0 0 170 170" fill="none" xmlns="http://www.w3.org/2000/svg">
<path d="M170 85C170 131.945 131.945 170 85 170C38.0552 170 0 131.945 0 85C0 38.0552 38.0552 0 85 0C131.945 0 170 38.0552 170 85Z" fill="url(#paint0_linear)"/>
<path d="M104.325 82.323C112.133 76.4424 117.191 67.0988 117.191 56.5945C117.191 38.8451 102.751 24.4043 85 24.4043C67.2506 24.4043 52.8098 38.8451 52.8098 56.5945C52.8098 67.0988 57.8668 76.4424 65.6747 82.323C44.7697 90.1698 29.8504 110.361 29.8504 133.975H39.8113C39.8113 109.057 60.0834 88.7859 85.0013 88.7859C109.918 88.7859 130.19 109.057 130.19 133.975H140.151C140.15 110.361 125.232 90.1698 104.325 82.323V82.323ZM62.7708 56.5945C62.7708 44.3365 72.7421 34.3652 85 34.3652C97.2579 34.3652 107.229 44.3365 107.229 56.5945C107.229 68.8524 97.2579 78.825 85 78.825C72.7421 78.825 62.7708 68.8524 62.7708 56.5945V56.5945Z" fill="white"/>
<defs>
<linearGradient id="paint0_linear" x1="0" y1="85" x2="170" y2="85" gradientUnits="userSpaceOnUse">
<stop stop-color="#FF8A00" stop-opacity="0.98"/>
<stop offset="1" stop-color="#00C1FE"/>
</linearGradient>
</defs>
</svg>
