<svg width="120" height="120" viewBox="0 0 120 120" fill="none" xmlns="http://www.w3.org/2000/svg">
<path d="M120 60C120 93.1375 93.1375 120 60 120C26.8625 120 0 93.1375 0 60C0 26.8625 26.8625 0 60 0C93.1375 0 120 26.8625 120 60Z" fill="url(#paint0_linear)"/>
<path d="M73.6414 58.1104C79.1528 53.9594 82.7234 47.3639 82.7234 39.949C82.7234 27.42 72.5299 17.2266 60 17.2266C47.471 17.2266 37.2775 27.42 37.2775 39.949C37.2775 47.3639 40.8472 53.9594 46.3586 58.1104C31.6022 63.6493 21.0709 77.9022 21.0709 94.5703H28.1021C28.1021 76.9812 42.4118 62.6724 60.0009 62.6724C77.5891 62.6724 91.8988 76.9812 91.8988 94.5703H98.9301C98.9291 77.9022 88.3987 63.6493 73.6414 58.1104V58.1104ZM44.3088 39.949C44.3088 31.2964 51.3474 24.2578 60 24.2578C68.6526 24.2578 75.6912 31.2964 75.6912 39.949C75.6912 48.6017 68.6526 55.6412 60 55.6412C51.3474 55.6412 44.3088 48.6017 44.3088 39.949V39.949Z" fill="white"/>
<defs>
<linearGradient id="paint0_linear" x1="0" y1="60" x2="120" y2="60" gradientUnits="userSpaceOnUse">
<stop stop-color="#FF8A00" stop-opacity="0.98"/>
<stop offset="1" stop-color="#00C1FE"/>
</linearGradient>
</defs>
</svg>
