<svg width="36" height="36" viewBox="0 0 36 36" fill="none" xmlns="http://www.w3.org/2000/svg">
<circle cx="18" cy="18" r="17.5" fill="#FF0000" stroke="#F80000"/>
<path d="M19.8544 7.21887C19.5132 7.21887 19.2363 6.94194 19.2363 6.60074V4.52381C19.2363 3.84263 18.6812 3.28755 18 3.28755C17.3188 3.28755 16.7637 3.84263 16.7637 4.52381V6.60074C16.7637 6.94194 16.4868 7.21887 16.1456 7.21887C15.8044 7.21887 15.5275 6.94318 15.5275 6.60074V4.52381C15.5275 3.16021 16.6364 2.05128 18 2.05128C19.3636 2.05128 20.4725 3.16021 20.4725 4.52381V6.60074C20.4725 6.94318 20.1956 7.21887 19.8544 7.21887Z" fill="white"/>
<path d="M18 34.6154C15.614 34.6154 13.6731 32.6744 13.6731 30.2885C13.6731 29.9472 13.95 29.6703 14.2912 29.6703C14.6324 29.6703 14.9093 29.9472 14.9093 30.2885C14.9093 31.992 16.2964 33.3791 18 33.3791C19.7036 33.3791 21.0907 31.992 21.0907 30.2885C21.0907 29.9472 21.3676 29.6703 21.7088 29.6703C22.05 29.6703 22.3269 29.9472 22.3269 30.2885C22.3269 32.6744 20.386 34.6154 18 34.6154Z" fill="white"/>
<path d="M28.5082 28.3352H7.49176C6.46937 28.3352 4.16667 27.5032 4.16667 26.4808C4.16667 25.9381 5.87349 25.425 6.2864 25.0714C8.23475 23.4247 9.34615 21.0288 9.34615 18.492V14.7363C9.34615 9.96429 13.228 6.08242 18 6.08242C22.772 6.08242 26.6538 9.96429 26.6538 14.7363V18.492C26.6538 21.0301 27.7652 23.4247 29.7037 25.0628C30.1265 25.425 31.6667 26.5562 31.6667 27.0989C31.6667 28.1213 29.5319 28.3352 28.5082 28.3352ZM18 7.31868C13.9092 7.31868 10.5824 10.2425 10.5824 14.3333V18.492C10.5824 21.3948 9.31154 24.1331 7.09492 26.0073C6.95275 26.1284 6.87363 26.3003 6.87363 26.4808C6.87363 26.822 7.15055 27.0989 7.49176 27.0989H28.5082C28.8495 27.0989 29.1264 26.822 29.1264 26.4808C29.1264 26.3003 29.0473 26.1284 28.91 26.011C26.6897 24.1331 25.4176 21.3935 25.4176 18.492V14.7363C25.4176 10.6455 22.0908 7.31868 18 7.31868Z" fill="white"/>
</svg>
