<svg width="10" height="10" viewBox="0 0 10 10" fill="none" xmlns="http://www.w3.org/2000/svg">
<path d="M3.31891 3.14119C3.3419 3.07049 3.40306 3.01898 3.47661 3.0083L4.32628 2.88505L4.70646 2.11525C4.73939 2.0486 4.80726 2.00642 4.88158 2.00642H4.88162C4.95597 2.00644 5.02385 2.04866 5.05674 2.11534L5.43648 2.88535L6.2861 3.00904C6.35967 3.01974 6.42077 3.07131 6.44372 3.14201C6.46667 3.21271 6.44749 3.29033 6.39424 3.34221L5.77928 3.94133L5.92418 4.78757C5.93674 4.86085 5.90658 4.93489 5.84643 4.97858C5.8124 5.00329 5.77213 5.01585 5.73166 5.01585C5.70057 5.01585 5.66934 5.00843 5.64074 4.99339L4.88091 4.59366L4.12087 4.99298C4.05507 5.02757 3.97532 5.02179 3.91519 4.97805C3.85505 4.93434 3.82495 4.86028 3.83753 4.78702L3.98288 3.94086L3.36823 3.34142C3.31505 3.28951 3.29593 3.21189 3.31891 3.14119ZM4.32915 3.73291C4.37517 3.77779 4.39617 3.84244 4.38529 3.9058L4.28954 4.46313L4.79015 4.20012C4.84705 4.17022 4.91504 4.17024 4.97193 4.20016L5.4724 4.46344L5.37695 3.90606C5.36609 3.8427 5.38713 3.77805 5.43316 3.73318L5.83821 3.33857L5.27861 3.25711C5.215 3.24785 5.16002 3.20787 5.13158 3.15023L4.88146 2.64308L4.63105 3.15011C4.60257 3.20775 4.54757 3.24769 4.48396 3.25691L3.92433 3.33808L4.32915 3.73291Z" fill="#FFE602"/>
<path d="M0.49178 8.58144L2.10616 5.77341C1.61864 5.16485 1.32655 4.39331 1.32655 3.55471C1.32655 1.59464 2.92119 0 4.88126 0C6.84133 0 8.43597 1.59464 8.43597 3.55471C8.43597 4.39331 8.1439 5.16485 7.65635 5.77341L9.27074 8.58144C9.30781 8.64593 9.30503 8.72589 9.26357 8.78767C9.2221 8.84943 9.14908 8.88228 9.07542 8.87238L7.8154 8.70318L7.33192 9.87898C7.3036 9.94783 7.2386 9.99461 7.1643 9.99957C7.15992 9.99986 7.15557 10 7.15123 10C7.0818 10 7.01717 9.96303 6.98213 9.90234L5.35237 7.07953C5.35212 7.0791 5.35195 7.07866 5.35169 7.07821C5.19771 7.09866 5.04071 7.1094 4.88122 7.1094C4.72173 7.1094 4.56473 7.09866 4.41075 7.07821C4.41049 7.07864 4.41032 7.07908 4.41007 7.07953L2.78031 9.90234C2.74527 9.96303 2.68062 10 2.61121 10C2.60687 10 2.60252 9.99986 2.59814 9.99957C2.52384 9.99461 2.45884 9.94783 2.43052 9.87898L1.94702 8.70318L0.686996 8.87238C0.613187 8.88228 0.540315 8.84943 0.49885 8.78767C0.457502 8.72589 0.454709 8.64593 0.49178 8.58144ZM7.12178 9.36293L7.47373 8.50702L7.15789 7.99161C7.10153 7.89964 7.13039 7.77938 7.22237 7.72303C7.31434 7.66669 7.43459 7.69553 7.49094 7.78751L7.8101 8.30833L8.73452 8.43245L7.38147 6.079C6.93826 6.51801 6.38053 6.84151 5.75755 7.00002L7.12178 9.36293ZM4.88128 6.71879C6.62596 6.71879 8.04536 5.29939 8.04536 3.55471C8.04536 1.81003 6.62596 0.390627 4.88128 0.390627C3.1366 0.390627 1.7172 1.81003 1.7172 3.55471C1.7172 5.29939 3.1366 6.71879 4.88128 6.71879ZM1.95243 8.30833L2.2716 7.78751C2.32794 7.69553 2.4482 7.66665 2.54017 7.72303C2.63214 7.7794 2.66101 7.89964 2.60464 7.99161L2.2888 8.50702L2.64076 9.36293L4.00498 7.00002C3.38201 6.84151 2.82425 6.51801 2.38107 6.079L1.02801 8.43245L1.95243 8.30833Z" fill="#FF0000"/>
<circle r="1.74359" transform="matrix(-1 0 0 1 4.87364 3.52564)" stroke="#FF0000"/>
<circle r="0.192308" transform="matrix(-1 0 0 1 4.87364 3.71795)" fill="black"/>
</svg>
