<svg width="17" height="20" viewBox="0 0 17 20" fill="none" xmlns="http://www.w3.org/2000/svg">
<path d="M6.00857 6.58218C6.05084 6.45218 6.16328 6.35748 6.29852 6.33783L7.86082 6.11122L8.55986 4.69577C8.62041 4.57324 8.7452 4.49567 8.88185 4.49567H8.88192C9.01864 4.4957 9.14344 4.57335 9.20391 4.69595L9.90216 6.11176L11.4643 6.3392C11.5996 6.35888 11.712 6.45368 11.7542 6.58369C11.7964 6.71369 11.7611 6.85641 11.6632 6.95179L10.5325 8.0534L10.7989 9.60938C10.822 9.74413 10.7665 9.88027 10.6559 9.96061C10.5934 10.006 10.5193 10.0291 10.4449 10.0291C10.3877 10.0291 10.3303 10.0155 10.2777 9.98783L8.88063 9.25284L7.48313 9.98707C7.36214 10.0507 7.21551 10.04 7.10494 9.95964C6.99436 9.87926 6.93902 9.74308 6.96215 9.60838L7.22941 8.05254L6.09925 6.95035C6.00146 6.8549 5.9663 6.71218 6.00857 6.58218ZM7.8661 7.67018C7.95071 7.75271 7.98932 7.87158 7.96931 7.98808L7.79327 9.01284L8.71374 8.52924C8.81836 8.47426 8.94337 8.4743 9.04798 8.52932L9.9682 9.01342L9.7927 7.98855C9.77273 7.87205 9.81141 7.75318 9.89605 7.67069L10.6408 6.94511L9.61188 6.79532C9.49491 6.7783 9.39382 6.70478 9.34153 6.59881L8.88163 5.6663L8.4212 6.59859C8.36884 6.70457 8.26771 6.77801 8.15074 6.79496L7.12174 6.94421L7.8661 7.67018Z" fill="#FFE602"/>
<path d="M0.810298 16.5852L3.77868 11.4221C2.88227 10.3031 2.3452 8.88446 2.3452 7.34252C2.3452 3.73853 5.27727 0.806458 8.88126 0.806458C12.4853 0.806458 15.4173 3.73853 15.4173 7.34252C15.4173 8.88446 14.8803 10.3031 13.9838 11.4221L16.9522 16.5852C17.0204 16.7038 17.0153 16.8508 16.939 16.9644C16.8628 17.078 16.7285 17.1384 16.5931 17.1202L14.2763 16.809L13.3873 18.971C13.3352 19.0976 13.2157 19.1836 13.0791 19.1927C13.0711 19.1933 13.063 19.1935 13.0551 19.1935C12.9274 19.1935 12.8086 19.1255 12.7441 19.014L9.7475 13.8236C9.74704 13.8229 9.74671 13.822 9.74625 13.8212C9.46311 13.8588 9.17445 13.8786 8.88119 13.8786C8.58793 13.8786 8.29926 13.8588 8.01613 13.8212C8.01566 13.822 8.01534 13.8228 8.01487 13.8236L5.01823 19.014C4.9538 19.1255 4.83493 19.1935 4.7073 19.1935C4.69933 19.1935 4.69132 19.1933 4.68328 19.1927C4.54667 19.1836 4.42715 19.0976 4.37508 18.971L3.48606 16.809L1.16924 17.1202C1.03353 17.1384 0.899542 17.078 0.8233 16.9644C0.747273 16.8508 0.742136 16.7038 0.810298 16.5852ZM13.0009 18.0221L13.6481 16.4484L13.0673 15.5007C12.9637 15.3316 13.0168 15.1105 13.1859 15.0068C13.355 14.9032 13.5761 14.9563 13.6797 15.1254L14.2665 16.083L15.9663 16.3113L13.4784 11.984C12.6635 12.7912 11.638 13.386 10.4925 13.6774L13.0009 18.0221ZM8.8813 13.1603C12.0892 13.1603 14.6991 10.5505 14.6991 7.34252C14.6991 4.13457 12.0892 1.52471 8.8813 1.52471C5.67335 1.52471 3.06348 4.13457 3.06348 7.34252C3.06348 10.5505 5.67335 13.1603 8.8813 13.1603ZM3.49601 16.083L4.08286 15.1254C4.18646 14.9563 4.40758 14.9032 4.57669 15.0068C4.7458 15.1105 4.79888 15.3316 4.69524 15.5007L4.11449 16.4484L4.76164 18.0221L7.27005 13.6774C6.12459 13.386 5.09903 12.7912 4.28415 11.984L1.79627 16.3113L3.49601 16.083Z" fill="#5BC0DE"/>
<circle r="3.8753" transform="matrix(-1 0 0 1 8.86725 7.28907)" stroke="#5BC0DE" stroke-width="0.5"/>
<circle r="0.353597" transform="matrix(-1 0 0 1 8.86726 7.64268)" fill="#FF0000"/>
</svg>
