<svg width="66" height="74" viewBox="0 0 66 74" fill="none" xmlns="http://www.w3.org/2000/svg">
<path d="M44.4427 23.2448C44.2725 22.7216 43.82 22.3405 43.2757 22.2614L36.9881 21.3494L34.1748 15.6528C33.9311 15.1597 33.4289 14.8475 32.8789 14.8475H32.8786C32.3284 14.8476 31.8262 15.1601 31.5828 15.6535L28.7726 21.3516L22.4855 22.2669C21.941 22.3461 21.4889 22.7277 21.3191 23.2509C21.1493 23.7741 21.2912 24.3485 21.6852 24.7323L26.2359 29.1659L25.1637 35.428C25.0707 35.9703 25.2939 36.5182 25.739 36.8415C25.9908 37.0243 26.2888 37.1173 26.5883 37.1173C26.8184 37.1173 27.0495 37.0624 27.2611 36.9511L32.8838 33.9931L38.5082 36.948C38.9951 37.204 39.5852 37.1612 40.0302 36.8376C40.4752 36.5142 40.698 35.9661 40.6049 35.4239L39.5293 29.1624L44.0777 24.7265C44.4713 24.3424 44.6128 23.768 44.4427 23.2448ZM36.9669 27.6235C36.6264 27.9557 36.471 28.4341 36.5515 28.9029L37.26 33.0272L33.5555 31.0809C33.1345 30.8596 32.6313 30.8598 32.2103 31.0812L28.5068 33.0295L29.2132 28.9048C29.2935 28.436 29.1379 27.9576 28.7972 27.6256L25.7999 24.7054L29.9409 24.1026C30.4116 24.0341 30.8185 23.7382 31.0289 23.3117L32.8798 19.5588L34.7328 23.3109C34.9436 23.7374 35.3506 24.0329 35.8213 24.1012L39.9626 24.7018L36.9669 27.6235Z" fill="#FFE602"/>
<path d="M65.3634 63.5026L53.4169 42.7233C57.0246 38.2199 59.1861 32.5105 59.1861 26.3048C59.1861 11.8003 47.3858 0 32.8812 0C18.3767 0 6.57641 11.8003 6.57641 26.3048C6.57641 32.5105 8.73774 38.2199 12.3455 42.7233L0.399105 63.5026C0.124783 63.9799 0.145307 64.5716 0.452148 65.0287C0.75899 65.4858 1.2994 65.7289 1.84443 65.6556L11.1686 64.4035L14.7464 73.1045C14.9559 73.614 15.4369 73.9601 15.9867 73.9968C16.0191 73.999 16.0514 74 16.0834 74C16.5972 74 17.0755 73.7264 17.3348 73.2773L29.395 52.3886C29.3969 52.3854 29.3982 52.382 29.4 52.3787C30.5395 52.53 31.7013 52.6095 32.8815 52.6095C34.0618 52.6095 35.2235 52.53 36.363 52.3787C36.3649 52.3819 36.3662 52.3852 36.3681 52.3886L48.4283 73.2773C48.6876 73.7264 49.166 74 49.6796 74C49.7117 74 49.7439 73.999 49.7763 73.9968C50.3261 73.9601 50.8071 73.614 51.0167 73.1045L54.5946 64.4035L63.9188 65.6556C64.465 65.7289 65.0042 65.4858 65.3111 65.0287C65.617 64.5716 65.6377 63.9799 65.3634 63.5026ZM16.3014 69.2857L13.6969 62.952L16.0342 59.1379C16.4513 58.4573 16.2377 57.5674 15.5571 57.1504C14.8765 56.7335 13.9866 56.9469 13.5696 57.6275L11.2078 61.4816L4.36709 62.4001L14.3797 44.9846C17.6594 48.2333 21.7867 50.6271 26.3967 51.8002L16.3014 69.2857ZM32.8811 49.719C19.9705 49.719 9.4669 39.2155 9.4669 26.3048C9.4669 13.3942 19.9705 2.89064 32.8811 2.89064C45.7917 2.89064 56.2953 13.3942 56.2953 26.3048C56.2953 39.2155 45.7917 49.719 32.8811 49.719ZM54.5546 61.4816L52.1928 57.6275C51.7758 56.9469 50.8859 56.7332 50.2053 57.1504C49.5247 57.5676 49.3111 58.4573 49.7282 59.1379L52.0654 62.952L49.461 69.2857L39.3657 51.8002C43.9757 50.6271 48.1031 48.2333 51.3827 44.9846L61.3953 62.4001L54.5546 61.4816Z" fill="#FF0000"/>
<circle cx="32.9376" cy="26.0897" r="16.1026" stroke="#FF0000"/>
<circle cx="32.9376" cy="27.5128" r="1.42308" fill="black"/>
</svg>
