<svg width="38" height="38" viewBox="0 0 38 38" fill="none" xmlns="http://www.w3.org/2000/svg">
<path d="M38 19C38 29.4935 29.4935 38 19 38C8.50645 38 0 29.4935 0 19C0 8.50645 8.50645 0 19 0C29.4935 0 38 8.50645 38 19Z" fill="url(#paint0_linear)"/>
<path d="M23.3198 18.4016C25.0651 17.0871 26.1957 14.9986 26.1957 12.6505C26.1957 8.68301 22.9678 5.45508 19 5.45508C15.0325 5.45508 11.8046 8.68301 11.8046 12.6505C11.8046 14.9986 12.9349 17.0871 14.6802 18.4016C10.0074 20.1556 6.67244 24.669 6.67244 29.9473H8.899C8.899 24.3774 13.4304 19.8463 19.0003 19.8463C24.5699 19.8463 29.1013 24.3774 29.1013 29.9473H31.3279C31.3276 24.669 27.9929 20.1556 23.3198 18.4016V18.4016ZM14.0311 12.6505C14.0311 9.91052 16.26 7.68164 19 7.68164C21.74 7.68164 23.9689 9.91052 23.9689 12.6505C23.9689 15.3905 21.74 17.6197 19 17.6197C16.26 17.6197 14.0311 15.3905 14.0311 12.6505V12.6505Z" fill="white"/>
<defs>
<linearGradient id="paint0_linear" x1="0" y1="19" x2="38" y2="19" gradientUnits="userSpaceOnUse">
<stop stop-color="#F30000" stop-opacity="0.69"/>
<stop offset="1" stop-color="#009EFF"/>
</linearGradient>
</defs>
</svg>
